<svg xmlns="http://www.w3.org/2000/svg" viewBox="0 0 50 48.077" transform="scale(1 -1)" width="50" height="48.077">
  <defs>
    <!-- تعریف گرادینت خطی -->
    <linearGradient id="grad" x1="0%" y1="0%" x2="100%" y2="100%">
      <stop offset="0%" stop-color="#6a11cb"></stop>   <!-- بنفش -->
      <stop offset="100%" stop-color="#2575fc"></stop> <!-- آبی -->
    </linearGradient>
  </defs>

  <!-- استفاده از گرادینت در مسیر -->
  <path fill="url(#grad)" d="M32.532 40.224q3.846-.321 5.929-2.404 2.404-2.404 2.404-6.571V15.224q0-4.327-2.484-6.731T31.41 6.089H16.667q-4.487 0-6.971 2.484t-2.484 6.811v15.865q0 3.205 1.603 5.449t4.327 3.045q.16.16.321 0t.16-.321v-2.885q0-.641.401-1.042t1.041-.401l.481.16v6.891q0 .481.401.961t.961.481 1.042-.481.481-.961v-1.763h8.974q.481 0 .481-.481v-3.363q0-.641.401-1.042t1.042-.401l.321.16v6.891q0 .481.481.961t1.042.481.961-.481.401-.961zM20.513 26.763q-.321.641-.881.801t-1.202-.16L14.263 25q-.481-.321-.641-.881t0-1.042l1.923-4.487q.321-.481.881-.721t1.122 0 .801.801-.08 1.202l-.481 1.122q2.885-.961 5.769-1.122 6.25-.641 10.577 2.083.801.481.721 1.362t-.881 1.282-1.442-.08q-3.365-2.244-8.654-1.763-2.724.321-5.289 1.122l1.442.801q.481.321.641.961t-.16 1.122"></path>
</svg>
