<svg viewBox="0 0 50 48.077" xmlns="http://www.w3.org/2000/svg" version="1.1" xmlns:xlink="http://www.w3.org/1999/xlink" transform="scale(1 -1)" width="50" height="48.077">
  <defs>
    <!-- تعریف گرادینت خطی -->
    <linearGradient id="grad4" x1="0%" y1="0%" x2="100%" y2="100%">
      <stop offset="0%" stop-color="#8E2DE2"></stop>  <!-- بنفش -->
      <stop offset="100%" stop-color="#4A00E0"></stop> <!-- آبی فیروزه‌ای -->
    </linearGradient>
  </defs>

  <!-- استفاده از گرادینت در مسیر -->
  <path fill="url(#grad4)" d="M38.622 9.295q-0.321 -0.801 -1.122 -0.801 -0.481 0 -0.801 0.321l-2.404 1.442q-0.641 0.481 -0.641 1.282v3.205q0 0.641 0.401 1.042t1.042 0.401 1.042 -0.401T36.538 14.744V12.34l1.603 -0.962q0.481 -0.321 0.641 -0.962t-0.16 -1.122m-3.526 11.538q-3.526 0 -6.01 -2.564T26.603 12.099t2.484 -6.25T35.096 3.205t6.01 2.644 2.484 6.25 -2.484 6.17 -6.01 2.564m6.571 10.737q0 -0.321 -0.16 -0.481t-0.481 -0.16H4.647q-0.321 0 -0.481 0.16t-0.16 0.481q0 4.167 2.404 6.571t6.41 2.404h20.032q3.846 0 6.33 -2.484T41.667 31.571M4.006 27.404q0 0.16 0.16 0.321t0.481 0.16h36.378q0.321 0 0.481 -0.16t0.16 -0.321v-4.487q0 -0.321 -0.321 -0.481t-0.641 0q-2.564 1.442 -5.689 1.442T29.327 22.276t-4.087 -4.327 -1.522 -5.929q0 -1.282 0.16 -2.564 0.16 -0.321 -0.08 -0.561T23.397 8.654H12.821q-3.846 0 -6.33 2.564T4.006 17.949zm9.295 -10.737h5.929q0.481 0 0.962 0.401t0.481 1.042 -0.481 1.042 -0.962 0.401H13.301q-0.641 0 -1.042 -0.401T11.859 18.109t0.401 -1.042T13.301 16.667"></path>
</svg>
