<svg xmlns="http://www.w3.org/2000/svg" viewBox="0 0 50 48.077" version="1.1" xmlns:xlink="http://www.w3.org/1999/xlink" transform="scale(1 -1)" width="50" height="48.077">
  <defs>
    <!-- تعریف گرادینت خطی -->
    <linearGradient id="grad3" x1="0%" y1="0%" x2="100%" y2="100%">
      <stop offset="0%" stop-color="#00c6ff"></stop>  <!-- آبی روشن -->
      <stop offset="100%" stop-color="#0072ff"></stop> <!-- آبی تیره -->
    </linearGradient>
  </defs>

  <!-- استفاده از گرادینت در مسیر -->
  <path fill="url(#grad3)" d="M33.013 42.147q5.288 -0.16 8.173 -2.965t2.885 -7.933h-8.494q-2.885 0 -4.968 -2.083t-2.083 -4.888 2.083 -4.888 4.968 -2.083h8.494v-0.641q0 -4.968 -2.885 -7.853t-8.173 -2.885H15.064q-5.288 0.16 -8.173 2.965T4.006 16.667v14.744q0 4.968 2.885 7.772T15.064 41.987zm9.615 -13.782q0.641 0 1.042 -0.481t0.401 -0.962v-5.128q0 -0.641 -0.481 -1.042t-0.962 -0.401h-6.891q-1.442 0 -2.644 0.881T31.571 23.558q-0.321 1.763 0.881 3.205t3.125 1.603zm-6.09 -2.404h-0.641q-0.641 0 -1.122 -0.401t-0.481 -1.042 0.481 -1.122 1.122 -0.481h0.641q0.641 0 1.122 0.481t0.481 1.122 -0.481 1.042 -1.122 0.401m-11.699 8.333H13.462q-0.641 0 -1.042 -0.401T12.019 32.853t0.401 -1.122 1.042 -0.481h11.378q0.641 0 1.042 0.481t0.401 1.042 -0.401 1.042 -1.042 0.481"></path>
</svg>
